<?xml version="1.0" standalone="no"?>
<!DOCTYPE svg PUBLIC "-//W3C//DTD SVG 20010904//EN"
 "http://www.w3.org/TR/2001/REC-SVG-20010904/DTD/svg10.dtd">
<svg version="1.0" xmlns="http://www.w3.org/2000/svg"
 width="1024.000000pt" height="1024.000000pt" viewBox="0 0 1024.000000 1024.000000"
 preserveAspectRatio="xMidYMid meet">

<g transform="translate(0.000000,1024.000000) scale(0.100000,-0.100000)"
fill="#000000" stroke="none">
<path d="M4972 9194 c-112 -30 -200 -85 -283 -177 l-46 -51 -59 31 c-210 111
-481 74 -647 -90 -34 -34 -76 -79 -92 -101 l-30 -39 -75 28 c-98 36 -270 46
-370 21 -93 -23 -216 -87 -282 -146 -59 -52 -140 -165 -159 -219 -16 -45 -40
-55 -86 -36 -53 23 -165 33 -251 24 -185 -20 -336 -126 -432 -301 l-45 -83
-70 -7 c-178 -17 -301 -74 -421 -193 -66 -65 -89 -97 -124 -168 -58 -121 -78
-236 -62 -364 7 -50 17 -103 23 -117 18 -38 6 -52 -77 -90 -60 -28 -93 -52
-153 -113 -42 -43 -89 -102 -104 -132 -37 -73 -67 -192 -67 -266 0 -75 33
-205 66 -262 13 -23 21 -48 18 -56 -3 -8 -27 -28 -53 -46 -94 -60 -208 -202
-257 -319 -71 -171 -71 -403 0 -574 65 -155 201 -300 355 -378 48 -24 48 -22
17 -130 -18 -62 -21 -212 -5 -280 43 -190 219 -368 404 -411 89 -21 90 -21
109 -95 70 -275 264 -479 524 -550 78 -22 244 -29 328 -15 102 18 218 64 285
113 33 25 45 19 119 -58 137 -141 317 -214 527 -214 208 0 422 94 541 237 20
23 42 45 50 48 8 3 39 -18 76 -53 69 -64 175 -123 253 -142 59 -13 77 -29 97
-88 9 -24 22 -53 31 -65 34 -48 16 -67 -65 -67 -138 0 -602 -45 -835 -81 -616
-96 -873 -231 -785 -414 56 -117 274 -201 720 -279 107 -19 378 -53 492 -62
117 -9 126 -16 108 -87 -7 -31 -10 -75 -7 -100 8 -54 -4 -67 -57 -67 -22 0
-69 -7 -105 -16 -219 -55 -362 -233 -363 -454 -1 -115 44 -242 110 -314 84
-90 287 -210 476 -280 504 -188 1222 -189 1736 -3 183 66 377 178 472 271 21
20 54 70 74 112 65 136 65 282 0 417 -73 153 -216 249 -391 264 -38 3 -75 10
-82 15 -7 6 -10 28 -6 61 2 29 0 72 -5 96 -16 69 -7 78 90 86 131 10 382 42
510 64 441 76 667 170 708 295 56 170 -174 290 -735 386 -208 35 -742 90 -879
90 -52 0 -76 8 -76 24 0 6 14 38 30 70 17 32 30 64 30 71 0 21 34 44 83 55 82
18 174 68 247 136 39 35 74 64 79 64 5 0 25 -20 45 -44 78 -96 246 -195 388
-230 96 -23 250 -21 351 5 139 35 247 98 355 206 34 35 65 63 68 63 3 0 35
-18 71 -40 123 -74 260 -106 421 -97 197 10 341 74 482 216 113 114 164 210
207 391 8 33 12 36 78 53 107 27 184 68 254 133 169 157 228 371 160 589 -24
79 -24 79 69 131 89 50 217 178 267 269 76 135 89 189 89 370 0 146 -2 166
-25 230 -53 151 -167 303 -280 377 -31 20 -49 39 -49 51 0 10 13 47 29 81 128
269 7 605 -264 736 -46 23 -85 46 -88 53 -2 7 4 44 14 82 24 93 24 222 1 311
-75 282 -294 463 -597 492 l-70 7 -30 62 c-69 142 -186 247 -337 300 -97 34
-252 36 -341 5 -32 -12 -64 -19 -70 -16 -7 2 -30 38 -51 79 -81 154 -204 258
-371 316 -61 21 -87 24 -210 24 -129 -1 -146 -3 -215 -29 l-75 -29 -25 34
c-51 69 -157 165 -216 196 -157 83 -375 84 -525 1 l-57 -32 -75 76 c-81 82
-156 126 -262 153 -73 19 -192 18 -263 -1z m265 -135 c155 -58 262 -191 279
-346 7 -72 28 -103 67 -103 49 0 62 22 58 97 -8 161 -15 142 64 182 62 31 81
36 161 39 126 6 203 -20 305 -101 39 -30 99 -108 99 -126 0 -6 -20 -36 -45
-67 -25 -30 -45 -65 -45 -78 0 -35 36 -61 77 -57 7 0 42 28 79 60 111 99 222
143 359 142 137 0 248 -44 347 -138 74 -71 114 -135 143 -225 22 -68 51 -108
80 -108 7 0 41 15 77 34 166 86 361 63 497 -60 57 -51 114 -135 109 -160 -2
-10 -25 -29 -53 -43 -54 -28 -78 -62 -66 -95 14 -37 53 -42 129 -18 142 45
267 38 400 -23 86 -40 186 -133 225 -210 38 -76 60 -193 54 -284 -9 -136 -36
-183 -72 -127 -20 30 -141 104 -209 128 -70 24 -131 23 -156 -2 -46 -46 -22
-77 99 -129 114 -49 166 -96 206 -184 48 -108 38 -215 -30 -326 -19 -31 -35
-62 -35 -68 0 -20 61 -63 88 -63 39 0 45 7 86 85 42 81 78 219 74 278 -4 54
14 58 88 22 194 -95 288 -350 201 -545 -33 -73 -46 -84 -97 -75 -36 6 -43 4
-71 -24 -25 -26 -30 -37 -24 -59 10 -40 20 -48 98 -78 100 -37 153 -69 221
-133 142 -134 208 -316 185 -508 -17 -137 -77 -259 -176 -354 -69 -68 -119
-100 -210 -135 -120 -47 -135 -78 -84 -168 16 -28 37 -85 47 -126 17 -71 17
-78 0 -158 -21 -102 -40 -142 -100 -209 -47 -53 -179 -128 -213 -121 -12 2
-20 21 -29 71 -7 37 -22 83 -33 101 -28 45 -26 72 10 145 57 113 64 300 15
358 -28 32 -78 35 -106 7 -24 -24 -26 -42 -16 -124 16 -136 -63 -274 -192
-337 -52 -25 -67 -27 -176 -28 -111 0 -119 -2 -137 -24 -45 -56 -6 -107 95
-122 112 -18 211 -9 279 24 32 16 64 27 71 24 28 -11 36 -225 11 -320 -78
-299 -375 -484 -686 -427 -67 12 -219 78 -219 95 0 7 20 20 44 29 98 37 209
151 273 279 33 64 33 100 3 132 -45 48 -104 26 -144 -53 -56 -110 -114 -164
-225 -211 -75 -32 -202 -32 -286 -1 -56 21 -108 53 -145 90 -67 67 -124 79
-159 34 -12 -15 -21 -37 -21 -49 0 -29 57 -94 142 -161 76 -61 117 -82 197
-98 30 -6 56 -17 59 -24 5 -17 -78 -94 -148 -137 -170 -103 -391 -112 -579
-23 -49 23 -88 53 -150 115 -92 93 -88 79 -63 200 12 54 23 67 98 115 100 62
163 144 204 262 21 61 19 78 -13 114 -42 46 -94 16 -123 -74 -23 -66 -69 -128
-127 -171 -124 -91 -305 -84 -420 17 -52 46 -84 50 -117 16 -36 -40 -30 -74
25 -123 56 -52 183 -115 245 -122 56 -7 61 -24 25 -98 -31 -67 -124 -162 -186
-192 -98 -48 -200 -61 -301 -40 -94 20 -207 91 -250 156 -69 105 -71 115 -29
133 37 15 157 138 171 175 13 34 3 71 -23 90 -41 29 -68 19 -132 -49 -51 -54
-71 -67 -118 -81 -48 -14 -66 -15 -114 -5 -53 11 -64 18 -124 81 -74 76 -110
88 -149 49 -33 -33 -26 -80 18 -137 52 -65 116 -121 147 -129 37 -9 32 -37
-20 -110 -98 -136 -262 -204 -428 -176 -92 16 -167 54 -233 118 -48 47 -114
155 -114 188 0 16 21 26 56 26 37 0 184 73 232 115 55 48 67 77 47 114 -26 52
-62 54 -119 7 -84 -68 -121 -81 -231 -81 -86 0 -106 3 -145 24 -87 45 -159
127 -182 206 -27 91 -80 121 -128 70 -19 -20 -22 -32 -18 -68 12 -107 119
-253 230 -316 62 -35 64 -38 88 -131 22 -80 16 -95 -69 -178 -185 -180 -454
-224 -687 -110 -72 35 -202 147 -191 165 4 6 28 14 54 18 63 9 118 34 179 80
108 82 164 144 164 179 0 39 -37 76 -75 76 -27 0 -47 -11 -95 -54 -33 -29 -85
-66 -117 -81 -103 -49 -254 -49 -356 0 -68 32 -158 124 -187 194 -34 78 -99
104 -147 59 -32 -30 -30 -78 8 -149 65 -121 184 -238 277 -270 18 -6 32 -17
32 -24 0 -16 -140 -79 -208 -94 -190 -40 -402 20 -536 152 -122 121 -183 280
-173 457 2 52 9 107 15 122 l11 27 63 -32 c61 -31 67 -32 188 -31 69 0 137 6
152 12 36 15 62 56 54 84 -13 50 -18 52 -143 53 -93 1 -128 6 -166 21 -67 28
-136 90 -172 155 -28 51 -30 60 -30 171 -1 124 -7 142 -53 159 -33 13 -77 -13
-91 -53 -35 -98 -18 -239 41 -351 l32 -59 -29 -56 c-16 -30 -34 -82 -40 -116
-11 -58 -13 -61 -40 -59 -41 3 -126 47 -177 93 -26 22 -61 70 -84 112 -39 73
-39 73 -39 189 0 114 1 117 38 190 61 121 52 145 -68 190 -94 35 -147 70 -220
143 -311 314 -193 834 222 986 42 15 85 38 95 50 47 58 -5 124 -89 113 -36 -5
-42 -2 -60 23 -30 42 -63 158 -63 218 0 109 50 224 130 303 52 51 142 103 179
103 19 0 21 -6 20 -57 -3 -100 31 -210 98 -315 27 -43 56 -49 104 -21 36 21
44 45 27 76 -7 14 -26 49 -43 78 -27 49 -30 62 -30 149 0 84 3 102 28 152 38
77 99 128 199 168 46 18 91 39 101 48 23 20 22 65 -3 87 -49 44 -234 -16 -340
-112 -26 -24 -53 -43 -59 -43 -5 0 -15 17 -20 38 -29 107 -23 218 20 348 39
120 164 237 305 285 97 33 239 32 339 -3 79 -28 108 -24 127 17 18 39 -2 69
-66 99 -31 15 -56 31 -56 37 0 25 47 97 94 143 140 140 340 170 514 80 36 -19
72 -34 82 -34 25 0 57 40 70 90 37 138 142 265 274 329 88 43 138 54 232 53
132 -2 245 -48 348 -142 71 -64 104 -74 138 -43 31 28 22 66 -28 122 -55 61
-54 69 22 151 135 145 323 183 502 100 34 -16 65 -36 68 -45 4 -8 1 -52 -6
-97 -11 -75 -10 -83 8 -107 10 -14 31 -27 46 -29 42 -5 62 20 69 86 19 175
133 315 302 368 65 21 176 17 242 -7z m-12 -5505 c85 -86 162 -132 265 -157
29 -8 56 -19 58 -25 7 -21 -68 -117 -113 -145 -49 -31 -64 -63 -49 -106 13
-37 53 -54 94 -40 28 10 36 9 72 -17 61 -43 99 -123 99 -206 0 -36 -6 -81 -14
-100 l-15 -35 -107 -6 c-138 -9 -734 -9 -841 -1 -81 7 -82 7 -98 41 -41 87 -8
223 72 296 47 41 47 41 91 26 25 -9 36 -8 56 5 63 41 56 90 -19 145 -49 36
-116 118 -116 141 0 5 12 12 28 16 153 35 282 119 369 241 l47 66 20 -29 c11
-16 57 -65 101 -110z m-785 -514 c0 -32 -22 -70 -44 -74 -12 -3 -109 -11 -216
-19 -185 -15 -346 -39 -490 -74 -71 -18 -130 -64 -130 -101 0 -29 46 -80 86
-97 290 -121 2129 -144 2752 -35 135 24 186 43 212 80 28 40 25 67 -12 104
-36 36 -81 50 -278 85 -115 21 -388 51 -467 51 -24 0 -48 6 -57 16 -20 19 -31
63 -20 74 9 9 410 -21 524 -40 36 -5 133 -17 215 -25 255 -26 504 -89 630
-159 95 -52 87 -77 -40 -137 -439 -206 -1851 -299 -2995 -198 -501 44 -885
121 -1054 212 -81 44 -90 60 -50 96 83 75 355 150 679 186 121 14 234 28 250
31 25 4 412 39 483 43 16 1 22 -5 22 -19z m-31 -233 c19 -24 24 -72 8 -85 -15
-13 -218 -3 -405 19 -167 21 -126 45 106 63 230 18 277 19 291 3z m1710 -7
c138 -11 164 -16 158 -33 -5 -17 -57 -25 -273 -41 -219 -17 -230 -15 -220 37
3 17 12 37 18 45 13 15 -1 16 317 -8z m-1328 -501 c306 -10 523 -7 874 12 171
10 190 9 201 -6 17 -23 26 -98 18 -152 -6 -42 -17 -58 -90 -135 -94 -97 -104
-126 -60 -168 36 -32 66 -28 125 18 57 45 135 78 209 88 120 16 261 -65 316
-181 37 -78 37 -196 1 -274 -80 -171 -414 -333 -852 -413 -104 -19 -156 -21
-428 -22 -282 -1 -321 2 -435 22 -461 85 -802 264 -856 449 -36 123 2 263 93
343 48 42 146 80 207 80 72 0 211 -57 255 -104 16 -17 35 -26 55 -26 39 0 51
8 70 44 20 39 7 63 -83 152 -65 63 -72 74 -81 126 -8 42 -8 69 1 100 17 66 24
71 94 64 34 -3 198 -11 366 -17z"/>
<path d="M4087 7376 c-50 -19 -85 -51 -108 -101 -59 -128 35 -275 176 -275
189 0 265 251 107 355 -48 32 -122 41 -175 21z"/>
<path d="M6018 7383 c-38 -6 -115 -77 -128 -119 -31 -93 12 -204 94 -244 108
-52 231 -2 271 109 21 59 19 87 -9 148 -39 84 -126 124 -228 106z"/>
<path d="M3623 6595 c-27 -19 -31 -66 -7 -89 8 -9 16 -16 17 -16 1 -1 37 -7
79 -14 294 -53 398 -401 180 -598 -57 -52 -110 -76 -188 -87 -37 -6 -74 -17
-85 -27 -28 -25 -24 -68 8 -94 23 -18 35 -20 82 -15 70 8 154 31 202 55 85 44
203 201 224 298 4 18 16 38 28 44 15 8 95 14 234 16 l213 4 10 -27 c5 -14 10
-88 10 -164 0 -202 38 -302 154 -409 93 -85 191 -122 321 -122 142 0 242 41
340 138 105 104 145 229 145 450 0 84 3 112 15 122 20 17 401 10 432 -8 13 -7
25 -25 28 -40 3 -15 21 -58 40 -97 60 -120 152 -202 264 -234 160 -46 230 -34
231 41 0 39 -42 68 -99 68 -90 0 -212 81 -265 176 -117 209 19 480 255 510 56
7 89 19 101 38 14 21 8 63 -12 81 -17 15 -31 17 -95 12 -179 -15 -336 -141
-398 -317 -13 -36 -26 -71 -30 -77 -6 -10 -214 -13 -956 -13 -742 0 -951 3
-959 13 -5 6 -17 37 -25 67 -49 171 -222 312 -400 326 -57 5 -77 2 -94 -11z"/>
<path d="M1834 5906 c-35 -16 -91 -89 -124 -161 -35 -79 -39 -196 -10 -286 59
-181 219 -301 405 -303 134 -1 235 45 235 107 -1 67 -46 86 -126 52 -22 -9
-67 -17 -102 -17 -112 -1 -210 63 -268 172 -13 26 -18 57 -18 115 0 89 10 117
75 199 51 64 51 94 -2 121 -33 18 -26 18 -65 1z"/>
<path d="M8314 5908 c-12 -6 -27 -20 -34 -33 -14 -27 -7 -45 50 -117 116 -145
52 -369 -125 -443 -51 -21 -149 -22 -199 -1 -56 23 -101 21 -120 -6 -36 -51
-11 -97 70 -128 113 -42 226 -34 344 22 68 33 155 125 193 205 30 64 32 75 32
178 0 103 -2 114 -31 175 -55 114 -126 172 -180 148z"/>
</g>
</svg>
